<svg xmlns="http://www.w3.org/2000/svg" xmlns:xlink="http://www.w3.org/1999/xlink" width="728" height="796.4"><defs><linearGradient id="a" x1="506" y1="757.8" x2="506" y2="51.8" gradientUnits="userSpaceOnUse"><stop offset="0" stop-color="#b3b3b3" stop-opacity=".3"/><stop offset=".5" stop-color="#b3b3b3" stop-opacity=".1"/><stop offset="1" stop-color="#b3b3b3" stop-opacity=".1"/></linearGradient><linearGradient id="c" x1="49.5" y1="96.5" x2="49.5" y2="3.5" xlink:href="#a"/><linearGradient id="b" x1="627.9" y1="796.4" x2="627.9" y2="596.1" gradientUnits="userSpaceOnUse"><stop offset="0" stop-color="gray" stop-opacity=".3"/><stop offset=".5" stop-color="gray" stop-opacity=".1"/><stop offset="1" stop-color="gray" stop-opacity=".1"/></linearGradient><linearGradient id="d" x1="627.9" y1="746.8" x2="627.9" y2="645.7" xlink:href="#b"/><linearGradient id="e" x1="611" y1="802.8" x2="611" y2="96.8" xlink:href="#a"/><linearGradient id="f" x1="154.5" y1="141.5" x2="154.5" y2="48.5" xlink:href="#a"/></defs><path d="M650 695c0-52 51-100 103-100 8 0 15-2 23 0V52H328l-92 94v612h423c-9-15-9-45-9-63Z" transform="translate(-236 -52)" fill="url(#a)"/><path d="M406 653a117 117 0 0 1 117-117h10V265H8v429h405a117 117 0 0 1-7-41Z" fill="#fcfcfc"/><path fill="#fcfcfc" d="M533 269H7V95L92 6h441v263z"/><path fill="#e0e0e0" d="M358 59h142v11H358zM358 99h142v11H358zM358 139h142v11H358z"/><path fill="#5664D2" opacity=".5" d="M358 179h142v11H358z"/><path fill="#e0e0e0" d="M358 219h142v11H358zM358 259h142v11H358z"/><path fill="#5664D2" opacity=".5" d="M85 344h142v11H85z"/><path fill="#e0e0e0" d="M85 387h142v11H85z"/><path fill="#69f0ae" opacity=".5" d="M85 365h372v11H85z"/><path fill="#5664D2" opacity=".5" d="M85 449h142v11H85z"/><path fill="#e0e0e0" d="M85 492h142v11H85zM85 471h372v11H85z"/><path fill="#5664D2" opacity=".5" d="M85 554h142v11H85z"/><path fill="#e0e0e0" d="M85 598h142v11H85zM85 576h305v11H85z"/><path fill="#5664D2" d="M310 281H50V54l9-11h251v238z"/><path fill="url(#c)" d="M5 97h89V4L5 97z"/><path fill="#f5f5f5" d="M7 95h85V6L7 95z"/><circle cx="627.9" cy="696.3" r="100.1" fill="url(#b)" opacity=".5"/><circle cx="627.9" cy="696.3" r="93.7" fill="#3ad29f"/><path fill="url(#d)" d="M678 685h-39v-39h-22v39h-40v23h40v39h22v-39h39v-23z" opacity=".5"/><path fill="#fff" d="M618 653h20v86h-20z"/><path fill="#fff" d="M671 686v20h-86v-20z"/><path d="M755 740c0-52 51-100 103-100 8 0 15-2 23 0V97H433l-92 94v612h423c-9-15-9-45-9-63Z" transform="translate(-236 -52)" fill="url(#e)"/><path d="M511 698a117 117 0 0 1 117-117h10V310H113v429h405a117 117 0 0 1-7-41Z" fill="#fff"/><path fill="#fff" d="M638 314H112V140l85-89h441v263z"/><path fill="#e0e0e0" d="M463 104h142v11H463zM463 144h142v11H463zM463 184h142v11H463z"/><path fill="#5664D2" opacity=".5" d="M463 224h142v11H463z"/><path fill="#e0e0e0" d="M463 264h142v11H463zM463 304h142v11H463z"/><path fill="#5664D2" opacity=".5" d="M190 389h142v11H190z"/><path fill="#e0e0e0" d="M190 432h142v11H190z"/><path fill="#69f0ae" opacity=".5" d="M190 410h372v11H190z"/><path fill="#5664D2" opacity=".5" d="M190 494h142v11H190z"/><path fill="#e0e0e0" d="M190 537h142v11H190zM190 516h372v11H190z"/><path fill="#5664D2" opacity=".5" d="M190 599h142v11H190z"/><path fill="#e0e0e0" d="M190 643h142v11H190zM190 621h305v11H190z"/><path fill="#5664D2" d="M415 326H155V99l9-11h251v238z"/><path fill="url(#f)" d="M110 142h89V49l-89 93z"/><path fill="#fcfcfc" d="M112 140h85V51l-85 89z"/></svg>